<svg width="21" height="18" viewBox="0 0 21 18" fill="none" xmlns="http://www.w3.org/2000/svg">
<path d="M0.9375 2.11719C0.9375 6.86523 3.22852 9.28906 7.17969 9.6543L3.72656 12.7422C2.86328 13.4727 2.83008 14.834 3.62695 15.6309L4.55664 16.5605C5.38672 17.3574 6.71484 17.3242 7.44531 16.4609L10.5664 12.9746C13.7539 16.7598 13.5215 16.4941 13.5547 16.4941C14.3184 17.3242 15.6133 17.3574 16.4102 16.5605L17.3398 15.6309C18.1367 14.834 18.1035 13.5391 17.2734 12.7422L13.6875 9.42188L13.9531 9.15625C15.2148 9.58789 16.5098 9.38867 17.6055 8.29297C18.3027 7.5957 19.6641 5.66992 19.8301 5.4043C20.4941 4.47461 19.5645 3.17969 18.5684 3.08008C18.4688 2.34961 17.8047 1.68555 17.1074 1.61914C16.9746 0.589844 15.7129 -0.273438 14.7832 0.357422C14.5176 0.523438 12.5918 1.88477 11.8945 2.58203C10.832 3.64453 10.5996 4.90625 11.0312 6.23438L10.6328 6.59961L4.25781 0.689453C2.99609 -0.505859 0.9375 0.390625 0.9375 2.11719ZM13.5215 8.02734L12.9238 8.69141L11.4297 7.33008L12.1602 6.66602C11.5625 5.57031 11.6621 4.30859 12.625 3.3457C13.2891 2.68164 15.3809 1.2207 15.3809 1.2207C15.6465 1.05469 16.2109 1.65234 16.0449 1.88477L13.3555 4.57422C13.123 4.83984 13.6875 5.4375 13.9863 5.23828L16.8418 2.68164C17.0742 2.51562 17.6719 3.08008 17.5059 3.3457L14.9492 6.20117C14.75 6.4668 15.3477 7.06445 15.6133 6.83203L18.3027 4.17578C18.5352 3.97656 19.1328 4.54102 18.9668 4.80664C18.9668 4.80664 17.5059 6.89844 16.8418 7.5625C15.8789 8.52539 14.6172 8.625 13.5215 8.02734ZM8.17578 10.1855L9.86914 12.1445L6.68164 15.7637C6.31641 16.1621 5.68555 16.1953 5.32031 15.7969L4.39062 14.8672C3.99219 14.502 4.02539 13.8711 4.42383 13.5059L8.17578 10.1855ZM2 2.11719C2 1.32031 2.96289 0.888672 3.56055 1.45312L16.5762 13.5391C16.9414 13.9043 16.9746 14.502 16.5762 14.8672L15.6465 15.7969C15.2812 16.1621 14.6836 16.1621 14.3184 15.7969L8.27539 8.625C3.62695 8.625 2 6.03516 2 2.11719Z" fill="#6F716E"/>
</svg>
