<svg width="22" height="20" viewBox="0 0 22 20" fill="none" xmlns="http://www.w3.org/2000/svg">
<path fill-rule="evenodd" clip-rule="evenodd" d="M10.5943 18.8538C8.42365 17.5179 6.40436 15.9456 4.57254 14.1652C3.28469 12.8829 2.30426 11.3198 1.70635 9.59539C0.630396 6.25031 1.88718 2.42083 5.40437 1.28752C7.25286 0.692435 9.2717 1.03255 10.8293 2.20148C12.3876 1.03398 14.4057 0.693978 16.2543 1.28752C19.7715 2.42083 21.0373 6.25031 19.9614 9.59539C19.3635 11.3198 18.383 12.8829 17.0952 14.1652C15.2634 15.9456 13.2441 17.5179 11.0735 18.8538L10.8384 19L10.5943 18.8538Z" stroke="#3B3A35" stroke-width="2" stroke-linecap="round" stroke-linejoin="round"/>
<path d="M14.5725 5.05298C15.6378 5.39328 16.3947 6.34968 16.4893 7.47496" stroke="#3B3A35" stroke-width="1.5" stroke-linecap="round" stroke-linejoin="round"/>
</svg>
