<svg width="19" height="19" viewBox="0 0 19 19" fill="none" xmlns="http://www.w3.org/2000/svg">
<g clip-path="url(#clip0)">
<path d="M19.0183 17.946L14.5281 13.4557C14.4167 13.3815 14.3054 13.3073 14.1941 13.3073H13.7117C14.8621 11.9714 15.6042 10.1901 15.6042 8.26041C15.6042 4.02995 12.116 0.541664 7.8855 0.541664C3.61792 0.541664 0.166748 4.02995 0.166748 8.26041C0.166748 12.528 3.61792 15.9792 7.8855 15.9792C9.81519 15.9792 11.5593 15.2741 12.9324 14.1237V14.6061C12.9324 14.7174 12.9695 14.8288 13.0437 14.9401L17.5339 19.4303C17.7195 19.6159 18.0164 19.6159 18.1648 19.4303L19.0183 18.5768C19.2039 18.4284 19.2039 18.1315 19.0183 17.946ZM7.8855 14.1979C4.58276 14.1979 1.948 11.5631 1.948 8.26041C1.948 4.99479 4.58276 2.32291 7.8855 2.32291C11.1511 2.32291 13.823 4.99479 13.823 8.26041C13.823 11.5631 11.1511 14.1979 7.8855 14.1979Z" fill="#959592"/>
</g>
<defs>
<clipPath id="clip0">
<rect width="19" height="19" fill="white"/>
</clipPath>
</defs>
</svg>
