<svg width="24" height="24" viewBox="0 0 24 24" fill="none" xmlns="http://www.w3.org/2000/svg">
<path d="M18.0833 17.0312H6.98708C6.81876 17.0313 6.65577 16.9722 6.52654 16.8643C6.39731 16.7565 6.31003 16.6067 6.27992 16.4411L3.8809 3.24643C3.85079 3.08082 3.76351 2.93103 3.63428 2.82318C3.50505 2.71533 3.34206 2.65625 3.17374 2.65625H1.552" stroke="white" stroke-width="2" stroke-linecap="round" stroke-linejoin="round"/>
<path d="M7.302 20.625C8.29439 20.625 9.09888 19.8205 9.09888 18.8281C9.09888 17.8357 8.29439 17.0312 7.302 17.0312C6.30962 17.0312 5.50513 17.8357 5.50513 18.8281C5.50513 19.8205 6.30962 20.625 7.302 20.625Z" stroke="white" stroke-width="2" stroke-linecap="round" stroke-linejoin="round"/>
<path d="M18.0833 20.625C19.0756 20.625 19.8801 19.8205 19.8801 18.8281C19.8801 17.8357 19.0756 17.0312 18.0833 17.0312C17.0909 17.0312 16.2864 17.8357 16.2864 18.8281C16.2864 19.8205 17.0909 20.625 18.0833 20.625Z" stroke="white" stroke-width="2" stroke-linecap="round" stroke-linejoin="round"/>
<path d="M4.427 6.25H20.097C20.2023 6.25 20.3063 6.27313 20.4017 6.31774C20.497 6.36236 20.5814 6.42738 20.6489 6.50821C20.7163 6.58904 20.7652 6.6837 20.792 6.78549C20.8189 6.88729 20.823 6.99374 20.8042 7.09732L19.6281 13.5661C19.598 13.7317 19.5107 13.8815 19.3814 13.9893C19.2522 14.0972 19.0892 14.1563 18.9209 14.1562H5.8645" stroke="white" stroke-width="2" stroke-linecap="round" stroke-linejoin="round"/>
</svg>
