<svg width="17" height="15" viewBox="0 0 17 15" fill="none" xmlns="http://www.w3.org/2000/svg">
<path fill-rule="evenodd" clip-rule="evenodd" d="M8.94088 1.31838L10.6136 4.68324C10.6973 4.85296 10.8591 4.9714 11.0469 4.99885L14.7916 5.5398C14.9433 5.56002 15.0798 5.63946 15.173 5.7608C15.3478 5.9883 15.321 6.31041 15.1116 6.50614L12.3975 9.13071C12.2595 9.26071 12.1981 9.45138 12.2342 9.63699L12.8842 13.3406C12.9297 13.6475 12.7203 13.935 12.4134 13.9848C12.2862 14.0043 12.1562 13.9841 12.0407 13.927L8.70544 12.1785C8.53788 12.0875 8.3371 12.0875 8.16955 12.1785L4.80975 13.9364C4.5288 14.0794 4.18502 13.9732 4.03191 13.6981C3.97341 13.5869 3.95318 13.4605 3.97341 13.337L4.62341 9.63338C4.65591 9.44849 4.59452 9.25854 4.46019 9.12782L1.73161 6.50397C1.50917 6.28297 1.50772 5.9233 1.72945 5.70085C1.73017 5.70013 1.73089 5.69869 1.73161 5.69796C1.82334 5.61491 1.936 5.5593 2.05806 5.53763L5.80353 4.99668C5.99059 4.96707 6.15164 4.85007 6.23687 4.68035L7.9081 1.31838C7.97527 1.18188 8.09443 1.07716 8.23888 1.02949C8.38405 0.981099 8.54294 0.992655 8.67944 1.06127C8.79138 1.11688 8.88311 1.20716 8.94088 1.31838Z" fill="white" stroke="#C2C2C2" stroke-width="1.5" stroke-linecap="round" stroke-linejoin="round"/>
</svg>
