<svg width="15" height="13" viewBox="0 0 15 13" fill="none" xmlns="http://www.w3.org/2000/svg">
<path fill-rule="evenodd" clip-rule="evenodd" d="M8.21652 0.318379L9.8892 3.68324C9.97298 3.85296 10.1348 3.9714 10.3225 3.99885L14.0673 4.5398C14.2189 4.56002 14.3554 4.63946 14.4486 4.7608C14.6234 4.9883 14.5967 5.31041 14.3872 5.50614L11.6731 8.13071C11.5352 8.26071 11.4738 8.45138 11.5099 8.63699L12.1599 12.3406C12.2054 12.6475 11.9959 12.935 11.689 12.9848C11.5619 13.0043 11.4319 12.9841 11.3163 12.927L7.98107 11.1785C7.81352 11.0875 7.61274 11.0875 7.44518 11.1785L4.08538 12.9364C3.80443 13.0794 3.46065 12.9732 3.30754 12.6981C3.24904 12.5869 3.22882 12.4605 3.24904 12.337L3.89905 8.63338C3.93155 8.44849 3.87016 8.25854 3.73582 8.12782L1.00725 5.50397C0.784803 5.28297 0.783359 4.9233 1.00508 4.70085C1.0058 4.70013 1.00653 4.69869 1.00725 4.69796C1.09897 4.61491 1.21164 4.5593 1.3337 4.53763L5.07916 3.99668C5.26622 3.96707 5.42728 3.85007 5.5125 3.68035L7.18374 0.318379C7.2509 0.181879 7.37007 0.0771556 7.51451 0.0294887C7.65968 -0.0189006 7.81857 -0.00734492 7.95507 0.0612666C8.06702 0.116878 8.15874 0.207157 8.21652 0.318379Z" fill="#067655"/>
</svg>
