<svg width="23" height="23" viewBox="0 0 23 23" fill="none" xmlns="http://www.w3.org/2000/svg">
<path d="M15.9166 14.5417C14.3151 14.5417 14.0416 14.5026 13.0651 14.8151C12.401 15.0495 11.6588 15.1667 10.9166 15.1667C10.1354 15.1667 9.39319 15.0495 8.72913 14.8151C7.75256 14.5026 7.47913 14.5417 5.91663 14.5417C3.14319 14.5417 0.916626 16.8073 0.916626 19.5417V20.1667C0.916626 20.8698 1.4635 21.4167 2.16663 21.4167H19.6666C20.3307 21.4167 20.9166 20.8698 20.9166 20.1667V19.5417C20.9166 16.8073 18.651 14.5417 15.9166 14.5417ZM19.0416 19.5417H2.79163C2.79163 18.7214 3.10413 17.9401 3.69006 17.3542C4.276 16.7682 5.05725 16.4167 5.91663 16.4167C7.51819 16.4167 7.51819 16.3776 8.10413 16.612C9.00256 16.8854 9.94006 17.0417 10.9166 17.0417C11.8541 17.0417 12.7916 16.8854 13.6901 16.612C14.3151 16.3776 14.276 16.4167 15.9166 16.4167C17.6354 16.4167 19.0416 17.8229 19.0416 19.5417ZM10.9166 13.9167C14.3541 13.9167 17.1666 11.1432 17.1666 7.66667C17.1666 4.22917 14.3541 1.41667 10.9166 1.41667C7.44006 1.41667 4.66663 4.22917 4.66663 7.66667C4.66663 11.1432 7.44006 13.9167 10.9166 13.9167ZM10.9166 3.29167C13.2994 3.29167 15.2916 5.28386 15.2916 7.66667C15.2916 10.0885 13.2994 12.0417 10.9166 12.0417C8.49475 12.0417 6.54163 10.0885 6.54163 7.66667C6.54163 5.28386 8.49475 3.29167 10.9166 3.29167Z" fill="#3B3A35"/>
</svg>
