<svg width="304" height="160" viewBox="0 0 304 160" fill="none" xmlns="http://www.w3.org/2000/svg">
<path d="M198.392 138.499L198.997 139.295L198.392 138.499ZM2.48231 132.587C1.97845 132.813 1.7534 133.405 1.97961 133.909L5.66586 142.119C5.89205 142.623 6.48387 142.848 6.98773 142.622C7.49155 142.396 7.71661 141.804 7.4904 141.3L4.21372 134.002L11.5119 130.725C12.0157 130.499 12.2408 129.907 12.0146 129.403C11.7884 128.9 11.1966 128.674 10.6928 128.901L2.48231 132.587ZM301.392 0.999969C300.519 0.51183 300.519 0.511825 300.519 0.511824C300.519 0.511826 300.519 0.511826 300.519 0.511831C300.519 0.511842 300.519 0.51186 300.519 0.511887C300.519 0.511944 300.519 0.512036 300.519 0.512163C300.519 0.512419 300.519 0.51282 300.518 0.513363C300.518 0.514451 300.517 0.516116 300.516 0.518355C300.513 0.522831 300.509 0.529605 300.504 0.538656C300.494 0.556756 300.479 0.583968 300.458 0.620144C300.418 0.692496 300.357 0.800706 300.276 0.943605C300.115 1.2294 299.875 1.65395 299.559 2.2079L301.297 3.19773C301.614 2.64139 301.856 2.21452 302.018 1.92646C302.099 1.78244 302.161 1.67311 302.202 1.59966C302.223 1.56294 302.238 1.53519 302.249 1.51654C302.254 1.50722 302.258 1.50018 302.261 1.49544C302.262 1.49306 302.263 1.49126 302.264 1.49004C302.264 1.48943 302.264 1.48896 302.264 1.48864C302.264 1.48848 302.265 1.48836 302.265 1.48827C302.265 1.48822 302.265 1.48819 302.265 1.48816C302.265 1.48815 302.265 1.48813 302.265 1.48813C302.265 1.48812 302.265 1.48811 301.392 0.999969ZM296.49 7.53133C295.876 8.58631 295.197 9.74729 294.456 11.0053L296.179 12.0202C296.922 10.7593 297.603 9.59549 298.219 8.53781L296.49 7.53133ZM291.346 16.245C290.682 17.3562 289.986 18.5151 289.26 19.7179L290.972 20.7514C291.7 19.5461 292.397 18.3848 293.063 17.2713L291.346 16.245ZM286.084 24.9433C285.399 26.0624 284.694 27.2096 283.97 28.3825L285.671 29.4334C286.397 28.2582 287.104 27.1088 287.79 25.9874L286.084 24.9433ZM280.75 33.5589C280.045 34.6849 279.325 35.8293 278.591 36.9906L280.282 38.059C281.018 36.8954 281.739 35.7486 282.445 34.6204L280.75 33.5589ZM275.321 42.1293C274.596 43.2608 273.859 44.405 273.112 45.5604L274.791 46.6469C275.54 45.489 276.278 44.3424 277.005 43.2085L275.321 42.1293ZM269.785 50.6643C269.052 51.7797 268.311 52.9032 267.561 54.0336L269.228 55.1392C269.979 54.0061 270.722 52.88 271.456 51.7621L269.785 50.6643ZM264.177 59.0957C263.423 60.2143 262.662 61.3378 261.894 62.4652L263.547 63.5912C264.317 62.4609 265.08 61.3346 265.835 60.2133L264.177 59.0957ZM258.446 67.4837C257.68 68.5891 256.909 69.6966 256.131 70.8053L257.769 71.9535C258.548 70.8417 259.322 69.7312 260.09 68.6228L258.446 67.4837ZM252.614 75.7751C251.829 76.8748 251.038 77.9741 250.243 79.0721L251.863 80.2448C252.661 79.1434 253.454 78.0407 254.242 76.9377L252.614 75.7751ZM246.652 83.9821C245.848 85.07 245.04 86.1552 244.228 87.2367L245.828 88.437C246.643 87.3516 247.453 86.2626 248.26 85.1709L246.652 83.9821ZM240.55 92.0827C239.725 93.1563 238.897 94.2247 238.067 95.287L239.643 96.5185C240.477 95.4518 241.308 94.3791 242.136 93.3012L240.55 92.0827ZM234.289 100.057C233.439 101.114 232.587 102.164 231.734 103.205L233.281 104.472C234.139 103.426 234.994 102.372 235.848 101.309L234.289 100.057ZM227.847 107.873C226.968 108.911 226.088 109.938 225.207 110.953L226.718 112.263C227.604 111.242 228.489 110.209 229.373 109.165L227.847 107.873ZM221.18 115.507C220.268 116.516 219.357 117.511 218.447 118.49L219.911 119.852C220.829 118.866 221.747 117.864 222.664 116.847L221.18 115.507ZM214.261 122.882C213.308 123.856 212.357 124.81 211.408 125.743L212.811 127.169C213.769 126.227 214.729 125.263 215.691 124.28L214.261 122.882ZM207.018 129.922C206.008 130.851 205.001 131.753 203.999 132.626L205.313 134.134C206.329 133.249 207.349 132.335 208.372 131.394L207.018 129.922ZM199.35 136.491C198.827 136.904 198.306 137.308 197.787 137.703L198.997 139.295C199.527 138.893 200.058 138.481 200.59 138.06L199.35 136.491ZM197.787 137.703C197.258 138.105 196.723 138.5 196.183 138.887L197.349 140.513C197.904 140.115 198.453 139.709 198.997 139.295L197.787 137.703ZM191.179 142.175C190.042 142.859 188.884 143.515 187.707 144.145L188.65 145.908C189.856 145.264 191.043 144.591 192.21 143.889L191.179 142.175ZM182.323 146.778C181.108 147.321 179.875 147.839 178.626 148.332L179.36 150.193C180.636 149.689 181.896 149.16 183.139 148.604L182.323 146.778ZM172.973 150.366C171.712 150.777 170.437 151.167 169.149 151.535L169.699 153.458C171.01 153.083 172.309 152.686 173.594 152.267L172.973 150.366ZM163.318 153.037C162.02 153.337 160.711 153.617 159.392 153.878L159.781 155.84C161.12 155.575 162.449 155.29 163.768 154.986L163.318 153.037ZM153.461 154.915C152.138 155.118 150.807 155.303 149.468 155.471L149.717 157.455C151.073 157.285 152.422 157.098 153.763 156.892L153.461 154.915ZM143.474 156.109C142.144 156.227 140.807 156.329 139.465 156.416L139.595 158.412C140.952 158.324 142.304 158.22 143.65 158.102L143.474 156.109ZM133.429 156.712C132.092 156.756 130.752 156.787 129.408 156.805L129.435 158.805C130.791 158.786 132.145 158.755 133.495 158.71L133.429 156.712ZM123.364 156.802C122.022 156.783 120.679 156.752 119.334 156.71L119.272 158.709C120.627 158.751 121.982 158.782 123.336 158.802L123.364 156.802ZM113.294 156.446C111.952 156.372 110.61 156.286 109.27 156.192L109.129 158.187C110.479 158.282 111.831 158.368 113.183 158.443L113.294 156.446ZM103.241 155.699C101.9 155.575 100.561 155.442 99.2246 155.3L99.0138 157.289C100.359 157.432 101.707 157.566 103.057 157.69L103.241 155.699ZM93.2187 154.604C91.8781 154.436 90.5418 154.26 89.2107 154.077L88.9376 156.058C90.2766 156.242 91.6209 156.42 92.9698 156.589L93.2187 154.604ZM83.2209 153.198C81.888 152.99 80.5617 152.776 79.2428 152.556L78.9137 154.529C80.2396 154.75 81.5732 154.965 82.9135 155.174L83.2209 153.198ZM73.2697 151.51C71.9408 151.267 70.6211 151.018 69.3115 150.764L68.9311 152.728C70.2472 152.983 71.5736 153.233 72.9092 153.478L73.2697 151.51ZM63.3836 149.571C62.0466 149.291 60.7221 149.008 59.4114 148.721L58.9837 150.674C60.3005 150.963 61.6311 151.248 62.9745 151.528L63.3836 149.571ZM53.5049 147.385C52.1852 147.077 50.8821 146.767 49.5968 146.455L49.125 148.398C50.4159 148.711 51.7248 149.023 53.0504 149.333L53.5049 147.385ZM43.7078 144.984C42.376 144.642 41.0675 144.3 39.7837 143.959L39.2698 145.891C40.559 146.234 41.8731 146.578 43.2105 146.921L43.7078 144.984ZM33.9374 142.364C32.6207 141.996 31.3366 141.631 30.087 141.27L29.5322 143.191C30.7871 143.554 32.0766 143.92 33.3988 144.29L33.9374 142.364ZM24.2588 139.546C22.9299 139.144 21.653 138.751 20.4314 138.37L19.8353 140.279C21.0622 140.662 22.3446 141.057 23.6793 141.461L24.2588 139.546ZM14.6039 136.505C13.2075 136.048 11.9253 135.619 10.7655 135.226L10.123 137.12C11.2891 137.515 12.5778 137.946 13.9809 138.406L14.6039 136.505ZM5.07489 133.237C4.47463 133.02 4.01652 132.851 3.70909 132.737C3.5554 132.68 3.43933 132.637 3.36202 132.608C3.32337 132.593 3.2944 132.582 3.27523 132.575C3.26566 132.571 3.25852 132.569 3.25387 132.567C3.25155 132.566 3.24983 132.565 3.24876 132.565C3.24821 132.565 3.24781 132.565 3.24758 132.565C3.24745 132.565 3.24737 132.565 3.24733 132.565C3.24731 132.565 3.24731 132.565 3.24731 132.565C3.24732 132.565 3.24733 132.565 2.89188 133.499C2.53643 134.434 2.53645 134.434 2.53646 134.434C2.53646 134.434 2.5365 134.434 2.53651 134.434C2.53653 134.434 2.53659 134.434 2.53665 134.434C2.53678 134.434 2.53692 134.434 2.53713 134.434C2.53749 134.434 2.53805 134.435 2.53875 134.435C2.54014 134.435 2.54215 134.436 2.54479 134.437C2.55003 134.439 2.55778 134.442 2.56798 134.446C2.58835 134.454 2.61856 134.465 2.65846 134.48C2.73825 134.51 2.85681 134.554 3.0131 134.612C3.32565 134.728 3.78907 134.899 4.39482 135.118L5.07489 133.237ZM198.392 138.499L199.602 140.091L198.392 138.499ZM2.07271 131.675C1.06504 132.127 0.614908 133.311 1.06734 134.318L8.43983 150.739C8.89226 151.747 10.0759 152.197 11.0835 151.745C12.0912 151.292 12.5413 150.109 12.0889 149.101L5.53559 134.505L20.132 127.951C21.1396 127.499 21.5897 126.315 21.1373 125.308C20.6849 124.3 19.5013 123.85 18.4936 124.302L2.07271 131.675ZM301.392 0.999969C299.646 0.0236903 299.646 0.0236796 299.646 0.0236721C299.646 0.0236723 299.646 0.0236666 299.646 0.0236671C299.646 0.0236682 299.646 0.0236791 299.646 0.0236983C299.646 0.0237382 299.646 0.0238129 299.646 0.0239239C299.646 0.0241458 299.646 0.0245127 299.646 0.0250242C299.645 0.0260446 299.644 0.0276425 299.643 0.0298135C299.641 0.034157 299.637 0.040796 299.632 0.0497107C299.622 0.0675414 299.607 0.0944822 299.587 0.130384C299.546 0.202188 299.486 0.309842 299.405 0.452177C299.245 0.736847 299.005 1.16023 298.69 1.71298L302.166 3.69265C302.484 3.13511 302.726 2.70707 302.889 2.41789C302.971 2.2733 303.032 2.16342 303.074 2.08942C303.095 2.05243 303.11 2.0244 303.121 2.00549C303.126 1.99603 303.13 1.98886 303.133 1.98398C303.135 1.98154 303.136 1.97967 303.136 1.97838C303.137 1.97774 303.137 1.97724 303.137 1.97688C303.137 1.9767 303.137 1.97656 303.137 1.97646C303.137 1.9764 303.137 1.97636 303.137 1.97633C303.137 1.97631 303.137 1.97629 303.137 1.97628C303.137 1.97626 303.137 1.97625 301.392 0.999969ZM295.626 7.02809C295.013 8.08172 294.334 9.24131 293.594 10.4979L297.041 12.5276C297.784 11.2652 298.466 10.1001 299.083 9.04105L295.626 7.02809ZM290.488 15.7318C289.825 16.8419 289.129 17.9996 288.404 19.2012L291.829 21.2682C292.557 20.0616 293.255 18.8992 293.921 17.7844L290.488 15.7318ZM285.231 24.4213C284.547 25.5393 283.842 26.6853 283.119 27.857L286.522 29.9589C287.249 28.7825 287.956 27.6319 288.643 26.5094L285.231 24.4213ZM279.903 33.0282C279.198 34.153 278.479 35.2963 277.746 36.4563L281.127 38.5933C281.864 37.4285 282.586 36.2805 283.293 35.1511L279.903 33.0282ZM274.479 41.5897C273.755 42.72 273.019 43.863 272.272 45.0171L275.63 47.1902C276.38 46.0311 277.119 44.8832 277.847 43.7481L274.479 41.5897ZM268.949 50.1154C268.217 51.2295 267.477 52.3517 266.728 53.4809L270.061 55.692C270.813 54.5576 271.557 53.4302 272.292 52.311L268.949 50.1154ZM263.347 58.5369C262.595 59.6541 261.835 60.7762 261.068 61.9022L264.373 64.1541C265.144 63.0225 265.908 61.8948 266.665 60.7721L263.347 58.5369ZM257.624 66.9142C256.86 68.0181 256.089 69.1241 255.313 70.2312L258.588 72.5276C259.368 71.4143 260.143 70.3022 260.912 69.1923L257.624 66.9142ZM251.801 75.1938C251.016 76.2918 250.227 77.3894 249.433 78.4857L252.673 80.8312C253.472 79.728 254.266 78.6236 255.055 77.519L251.801 75.1938ZM245.848 83.3876C245.045 84.4737 244.239 85.557 243.429 86.6366L246.628 89.0371C247.444 87.9498 248.256 86.8589 249.065 85.7653L245.848 83.3876ZM239.757 91.4734C238.934 92.5449 238.108 93.6112 237.279 94.6712L240.431 97.1343C241.266 96.0654 242.099 94.9904 242.929 93.9105L239.757 91.4734ZM233.509 99.4303C232.661 100.485 231.812 101.533 230.961 102.571L234.055 105.106C234.914 104.058 235.772 103 236.627 101.936L233.509 99.4303ZM227.084 107.226C226.207 108.262 225.33 109.286 224.452 110.298L227.474 112.919C228.362 111.894 229.25 110.858 230.136 109.811L227.084 107.226ZM220.438 114.837C219.529 115.843 218.621 116.834 217.715 117.809L220.644 120.533C221.565 119.543 222.486 118.537 223.407 117.517L220.438 114.837ZM213.546 122.183C212.597 123.152 211.651 124.102 210.707 125.03L213.512 127.882C214.475 126.935 215.44 125.967 216.405 124.98L213.546 122.183ZM206.342 129.186C205.337 130.109 204.337 131.005 203.342 131.872L205.97 134.888C206.993 133.997 208.019 133.077 209.049 132.131L206.342 129.186ZM198.731 135.706C198.212 136.116 197.696 136.516 197.181 136.907L199.602 140.091C200.137 139.685 200.673 139.269 201.21 138.845L198.731 135.706ZM197.181 136.907C196.66 137.304 196.133 137.693 195.6 138.075L197.931 141.325C198.494 140.922 199.051 140.51 199.602 140.091L197.181 136.907ZM190.664 141.318C189.542 141.993 188.399 142.641 187.236 143.263L189.121 146.79C190.342 146.138 191.544 145.457 192.726 144.746L190.664 141.318ZM181.916 145.865C180.714 146.402 179.494 146.914 178.258 147.402L179.728 151.123C181.017 150.614 182.29 150.079 183.547 149.517L181.916 145.865ZM172.663 149.415C171.414 149.823 170.151 150.209 168.875 150.573L169.974 154.419C171.296 154.041 172.607 153.641 173.904 153.218L172.663 149.415ZM163.093 152.063C161.806 152.36 160.507 152.638 159.198 152.897L159.975 156.821C161.324 156.554 162.663 156.267 163.993 155.96L163.093 152.063ZM153.309 153.927C151.996 154.128 150.673 154.312 149.343 154.479L149.842 158.448C151.206 158.276 152.564 158.087 153.914 157.881L153.309 153.927ZM143.387 155.113C142.064 155.23 140.735 155.331 139.4 155.418L139.66 159.41C141.024 159.321 142.384 159.217 143.738 159.098L143.387 155.113ZM133.395 155.712C132.066 155.756 130.732 155.787 129.395 155.805L129.449 159.805C130.811 159.786 132.171 159.755 133.528 159.71L133.395 155.712ZM123.378 155.802C122.042 155.783 120.704 155.752 119.366 155.71L119.24 159.708C120.601 159.751 121.962 159.782 123.321 159.801L123.378 155.802ZM113.35 155.448C112.013 155.373 110.676 155.289 109.34 155.194L109.058 159.184C110.413 159.28 111.77 159.366 113.127 159.442L113.35 155.448ZM103.333 154.703C101.997 154.58 100.662 154.447 99.3301 154.306L98.9083 158.283C100.258 158.426 101.61 158.561 102.965 158.686L103.333 154.703ZM93.3432 153.612C92.0067 153.445 90.6744 153.269 89.3472 153.086L88.8011 157.049C90.144 157.234 91.4924 157.411 92.8453 157.581L93.3432 153.612ZM83.3746 152.21C82.0454 152.003 80.7228 151.789 79.4074 151.57L78.7491 155.515C80.0786 155.737 81.4158 155.953 82.7598 156.162L83.3746 152.21ZM73.4499 150.527C72.1244 150.284 70.808 150.036 69.5017 149.783L68.741 153.71C70.0603 153.965 71.39 154.216 72.729 154.461L73.4499 150.527ZM63.5881 148.592C62.2543 148.313 60.9329 148.03 59.6252 147.744L58.7698 151.651C60.0897 151.94 61.4234 152.226 62.77 152.507L63.5881 148.592ZM53.7322 146.411C52.4154 146.104 51.1152 145.794 49.8327 145.483L48.8891 149.37C50.1828 149.684 51.4946 149.996 52.8232 150.306L53.7322 146.411ZM43.9564 144.015C42.6275 143.674 41.3218 143.333 40.0407 142.992L39.0128 146.858C40.3048 147.201 41.6216 147.546 42.9619 147.89L43.9564 144.015ZM34.2067 141.401C32.8928 141.033 31.6114 140.669 30.3643 140.309L29.2548 144.152C30.5124 144.515 31.8046 144.883 33.1295 145.253L34.2067 141.401ZM24.5486 138.589C23.2225 138.188 21.9484 137.796 20.7295 137.415L19.5372 141.233C20.7668 141.617 22.052 142.013 23.3896 142.418L24.5486 138.589ZM14.9154 135.555C13.5224 135.099 12.2434 134.671 11.0867 134.279L9.80174 138.067C10.971 138.463 12.263 138.895 13.6695 139.356L14.9154 135.555ZM5.41495 132.297C4.8174 132.081 4.36197 131.913 4.0571 131.8C3.90467 131.743 3.78989 131.7 3.71382 131.672C3.67579 131.657 3.64741 131.647 3.62887 131.64C3.61958 131.636 3.61276 131.634 3.60843 131.632C3.60624 131.631 3.60468 131.631 3.60373 131.63C3.60328 131.63 3.60296 131.63 3.60281 131.63C3.60273 131.63 3.60268 131.63 3.60268 131.63C3.60268 131.63 3.60269 131.63 3.6027 131.63C3.60272 131.63 3.60274 131.63 3.60274 131.63C3.60275 131.63 3.60279 131.63 2.89188 133.499C2.18096 135.369 2.18101 135.369 2.18103 135.369C2.18104 135.369 2.18108 135.369 2.1811 135.369C2.18117 135.369 2.18123 135.369 2.18131 135.369C2.18146 135.369 2.18165 135.369 2.18188 135.369C2.18234 135.369 2.18297 135.369 2.18374 135.37C2.18528 135.37 2.18744 135.371 2.19022 135.372C2.19581 135.374 2.20384 135.377 2.21435 135.381C2.23533 135.389 2.26616 135.401 2.30668 135.416C2.38771 135.446 2.50754 135.491 2.66511 135.55C2.98022 135.667 3.44627 135.838 4.05476 136.058L5.41495 132.297Z" fill="#959592"/>
</svg>
