<svg width="771" height="625" viewBox="0 0 771 625" fill="none" xmlns="http://www.w3.org/2000/svg">
<path d="M599.063 67.7504C650.614 99.4186 697.953 139.438 724.558 193.834C751.498 248.912 756.877 311.846 748.145 372.552C739.439 433.069 717.826 492.96 675.229 536.752C633.867 579.276 575.625 600.473 517.13 610.05C463.319 618.86 409.712 606.828 358.3 588.639C309.289 571.3 266.567 543.384 228.497 507.937C186.771 469.088 134.699 430.613 127.744 373.978C120.806 317.478 163.96 268.865 193.139 220.016C219.208 176.371 249.951 138.15 288.429 104.965C332.203 67.2112 374.572 20.9391 431.928 14.0677C491.221 6.96433 548.159 36.4791 599.063 67.7504Z" fill="#F0F0F0"/>
<path d="M606.203 57.8145C605.65 57.4748 605.096 57.1352 604.541 56.7958L604.019 57.6488C602.359 56.633 600.693 55.6193 599.02 54.6089L599.537 53.753C598.424 53.0804 597.308 52.4092 596.19 51.7398L595.676 52.5979C594.005 51.5979 592.328 50.602 590.646 49.6111L591.153 48.7494C590.033 48.0896 588.91 47.432 587.784 46.777L587.281 47.6413C585.597 46.6612 583.907 45.687 582.212 44.7196L582.708 43.8511C581.577 43.206 580.444 42.5639 579.309 41.9251L578.818 42.7967C577.119 41.8409 575.415 40.8927 573.705 39.9531L574.187 39.0767C573.046 38.4495 571.902 37.8262 570.756 37.2069L570.28 38.0867C568.565 37.1597 566.844 36.2421 565.118 35.3349L565.583 34.4497C564.43 33.8434 563.274 33.2418 562.116 32.6451L561.658 33.5341C559.923 32.6405 558.184 31.7581 556.44 30.8879L556.886 29.9931C555.72 29.4112 554.551 28.8347 553.38 28.2639L552.942 29.1629C551.187 28.3078 549.428 27.4658 547.664 26.638L548.089 25.7327C546.908 25.1787 545.726 24.631 544.541 24.0899L544.126 24.9996C542.35 24.1886 540.57 23.3925 538.785 22.6125L539.185 21.6962C537.989 21.1735 536.791 20.658 535.59 20.1499L535.2 21.0709C533.402 20.3098 531.599 19.5656 529.792 18.8395L530.165 17.9116C528.954 17.4249 527.74 16.9462 526.525 16.4759L526.164 17.4086C524.343 16.7038 522.517 16.018 520.687 15.3523L521.029 14.4126C519.802 13.9663 518.573 13.529 517.343 13.101L517.014 14.0455C515.169 13.404 513.32 12.7835 511.467 12.1852L511.775 11.2335C510.531 10.8319 509.285 10.4402 508.037 10.0588L507.745 11.0151C505.877 10.4442 504.006 9.89643 502.13 9.37301L502.399 8.40981C501.14 8.05852 499.879 7.71811 498.617 7.38895L498.365 8.3566C496.475 7.86398 494.582 7.39671 492.685 6.95595L492.911 5.9819C491.638 5.68616 490.363 5.40229 489.087 5.13064L488.879 6.10874C486.969 5.7024 485.056 5.32358 483.14 4.97346L483.319 3.98974C482.033 3.7548 480.745 3.5327 479.456 3.32381L479.296 4.31094C477.37 3.99894 475.44 3.71659 473.507 3.46509L473.636 2.47345C472.34 2.30476 471.042 2.14987 469.742 2.00913L469.635 3.00331C467.696 2.79338 465.755 2.61512 463.81 2.46975L463.884 1.47253C462.581 1.3751 461.276 1.29236 459.969 1.22465L459.917 2.22331C457.972 2.12247 456.023 2.0552 454.071 2.02269L454.088 1.02283C452.781 1.00105 451.472 0.994774 450.163 1.00434L450.17 2.00432C448.223 2.01854 446.274 2.06799 444.322 2.15384L444.278 1.15481C442.974 1.21216 441.668 1.28566 440.362 1.37565L440.43 2.37328C438.491 2.50689 436.548 2.67707 434.603 2.88499L434.497 1.89065C433.846 1.96027 433.194 2.0341 432.543 2.11217C431.876 2.19195 431.212 2.27682 430.55 2.36671L430.685 3.35762C428.707 3.62615 426.746 3.93984 424.801 4.29684L424.621 3.31328C423.306 3.55476 421.998 3.81588 420.698 4.09608L420.909 5.07363C418.96 5.49346 417.029 5.95647 415.113 6.46072L414.859 5.49366C413.567 5.83366 412.283 6.19224 411.006 6.56882L411.288 7.528C409.38 8.09057 407.488 8.69366 405.611 9.33528L405.287 8.38902C404.025 8.8205 402.769 9.26924 401.52 9.73464L401.869 10.6717C400.008 11.3653 398.161 12.0962 396.328 12.8625L395.942 11.9399C394.713 12.4537 393.491 12.9833 392.274 13.5279L392.683 14.4406C390.872 15.2515 389.074 16.0964 387.29 16.9731L386.849 16.0756C385.655 16.6621 384.466 17.2628 383.284 17.8771L383.745 18.7645C381.985 19.6784 380.237 20.6226 378.501 21.5952L378.013 20.7227C376.853 21.3725 375.698 22.0347 374.549 22.7089L375.055 23.5715C373.345 24.5742 371.646 25.6035 369.958 26.6577L369.428 25.8094C368.301 26.5132 367.179 27.2278 366.061 27.9527L366.605 28.7918C364.942 29.8699 363.289 30.9712 361.645 32.0937L361.081 31.2679C359.985 32.0163 358.893 32.7741 357.805 33.5406L358.381 34.3581C356.761 35.4997 355.149 36.6611 353.545 37.8404L352.953 37.0347C351.884 37.8202 350.82 38.6135 349.758 39.4141L350.36 40.2125C348.778 41.4063 347.202 42.6167 345.634 43.8416L345.018 43.0535C343.973 43.8697 342.931 44.6923 341.892 45.5207L342.515 46.3027C340.964 47.5389 339.42 48.7884 337.881 50.0495L337.247 49.276C336.222 50.1166 335.199 50.9622 334.178 51.8123L334.818 52.5807C333.293 53.8504 331.774 55.1304 330.26 56.4189L329.612 55.6572C328.602 56.5161 327.594 57.3787 326.589 58.2445L327.241 59.0023C325.737 60.2974 324.237 61.5999 322.741 62.908L322.082 62.1551C321.085 63.0273 320.089 63.9019 319.094 64.7784L319.755 65.5286C318.265 66.8418 316.778 68.1593 315.294 69.4797L314.629 68.7325C313.639 69.6133 312.65 70.4953 311.662 71.3778L312.328 72.1236C310.846 73.4476 309.366 74.7731 307.888 76.0986L307.221 75.354C306.234 76.2385 305.249 77.1229 304.264 78.0066L304.931 78.751C303.451 80.0789 301.972 81.4055 300.494 82.729L299.827 81.984C298.84 82.8679 297.853 83.7504 296.867 84.6309L297.532 85.377C296.048 86.7017 294.564 88.0222 293.08 89.3368L292.417 88.5881C291.424 89.4668 290.432 90.3428 289.439 91.2155L290.1 91.9665C288.604 93.281 287.109 94.5883 285.611 95.8865L284.956 95.1309C284.457 95.5638 283.957 95.9957 283.458 96.4264C282.966 96.8506 282.475 97.2756 281.986 97.7013L282.642 98.4559C281.175 99.7322 279.718 101.016 278.273 102.306L277.607 101.56C276.638 102.425 275.674 103.293 274.715 104.164L275.388 104.905C273.948 106.212 272.52 107.526 271.102 108.848L270.42 108.117C269.471 109.002 268.526 109.891 267.586 110.783L268.274 111.508C266.864 112.846 265.464 114.191 264.075 115.544L263.377 114.827C262.447 115.733 261.522 116.642 260.601 117.554L261.305 118.264C259.924 119.632 258.554 121.007 257.194 122.39L256.481 121.689C255.571 122.614 254.665 123.543 253.764 124.474L254.483 125.17C253.133 126.566 251.792 127.971 250.462 129.383L249.734 128.697C248.844 129.641 247.959 130.589 247.078 131.54L247.812 132.22C246.492 133.645 245.182 135.078 243.882 136.518L243.14 135.848C242.27 136.811 241.405 137.778 240.545 138.747L241.293 139.411C240.004 140.864 238.724 142.324 237.455 143.792L236.698 143.137C235.85 144.118 235.005 145.103 234.165 146.091L234.927 146.739C233.669 148.218 232.421 149.704 231.181 151.199L230.412 150.56C229.584 151.559 228.76 152.56 227.94 153.565L228.715 154.197C227.489 155.702 226.271 157.214 225.063 158.734L224.28 158.111C223.473 159.126 222.67 160.144 221.871 161.166L222.658 161.782C221.463 163.311 220.276 164.847 219.098 166.391L218.303 165.785C217.517 166.815 216.734 167.849 215.956 168.887L216.756 169.487C215.591 171.039 214.435 172.599 213.287 174.166L212.48 173.575C211.715 174.621 210.952 175.67 210.194 176.723L211.005 177.307C209.872 178.881 208.746 180.463 207.628 182.052L206.81 181.477C206.065 182.537 205.323 183.6 204.584 184.667L205.407 185.236C204.303 186.831 203.207 188.434 202.119 190.044L201.291 189.484C200.565 190.557 199.843 191.634 199.124 192.715L199.957 193.269C198.883 194.883 197.817 196.505 196.758 198.135L195.919 197.59C195.213 198.677 194.511 199.766 193.812 200.86L194.654 201.398C193.609 203.032 192.572 204.672 191.541 206.321L190.693 205.791C190.007 206.889 189.323 207.991 188.643 209.096L189.494 209.62C188.478 211.271 187.469 212.929 186.466 214.595L185.609 214.079C185.275 214.635 184.941 215.191 184.608 215.748C184.274 216.307 183.939 216.866 183.601 217.425L184.457 217.942C183.446 219.617 182.419 221.293 181.38 222.969L180.53 222.442C179.842 223.551 179.148 224.661 178.449 225.771L179.295 226.304C178.252 227.962 177.197 229.62 176.134 231.279L175.292 230.739C174.587 231.839 173.879 232.939 173.167 234.04L174.007 234.583C172.942 236.23 171.87 237.877 170.794 239.526L169.957 238.979C169.242 240.074 168.525 241.17 167.807 242.266L168.644 242.814C167.689 244.27 166.733 245.728 165.775 247.187C165.653 247.372 165.532 247.558 165.41 247.743L164.574 247.195C163.855 248.289 163.136 249.385 162.418 250.481L163.254 251.03C162.177 252.672 161.101 254.317 160.028 255.964L159.19 255.418C158.475 256.516 157.76 257.615 157.048 258.715L157.887 259.259C156.819 260.909 155.754 262.561 154.697 264.216L153.854 263.678C153.148 264.784 152.444 265.891 151.744 266.999L152.589 267.533C151.539 269.197 150.496 270.863 149.464 272.532L148.614 272.006C147.923 273.124 147.236 274.243 146.555 275.364L147.41 275.883C146.387 277.565 145.377 279.251 144.381 280.94L143.519 280.432C142.851 281.565 142.19 282.7 141.535 283.836L142.402 284.335C141.419 286.042 140.452 287.753 139.503 289.468L138.628 288.984C137.991 290.136 137.363 291.289 136.743 292.444L137.625 292.917C136.693 294.654 135.782 296.395 134.894 298.141L134.003 297.688C133.405 298.863 132.818 300.041 132.241 301.221L133.14 301.66C132.274 303.431 131.434 305.208 130.621 306.989L129.712 306.574C129.164 307.775 128.628 308.978 128.106 310.184L129.024 310.581C128.24 312.39 127.487 314.205 126.766 316.026L125.836 315.658C125.35 316.885 124.878 318.115 124.422 319.349L125.36 319.695C124.677 321.544 124.028 323.399 123.417 325.26L122.467 324.948C122.055 326.203 121.66 327.461 121.283 328.722L122.241 329.008C121.676 330.895 121.152 332.789 120.671 334.69L119.701 334.444C119.377 335.724 119.072 337.008 118.787 338.296L119.764 338.512C119.339 340.432 118.959 342.36 118.627 344.295L117.641 344.126C117.418 345.428 117.216 346.734 117.036 348.043L118.027 348.179C117.76 350.124 117.543 352.077 117.378 354.038L116.382 353.954C116.272 355.268 116.185 356.587 116.122 357.909L117.12 357.957C117.027 359.912 116.987 361.876 117.003 363.85L116.004 363.858C116.014 365.174 116.05 366.495 116.111 367.82L117.109 367.774C117.199 369.724 117.344 371.682 117.548 373.65L116.553 373.753C116.621 374.412 116.696 375.073 116.777 375.734C116.859 376.396 116.946 377.057 117.039 377.715L118.029 377.574C118.307 379.539 118.638 381.482 119.019 383.405L118.038 383.599C118.296 384.904 118.577 386.199 118.881 387.485L119.854 387.255C120.309 389.181 120.814 391.087 121.367 392.973L120.407 393.254C120.781 394.529 121.176 395.794 121.593 397.05L122.542 396.735C123.163 398.61 123.832 400.465 124.545 402.301L123.613 402.663C124.093 403.899 124.594 405.126 125.113 406.345L126.033 405.953C126.806 407.766 127.623 409.56 128.48 411.338L127.579 411.772C128.154 412.964 128.747 414.147 129.358 415.323L130.245 414.862C131.152 416.609 132.099 418.339 133.081 420.053L132.214 420.551C132.871 421.697 133.544 422.835 134.233 423.967L135.087 423.447C136.11 425.127 137.167 426.791 138.257 428.441L137.422 428.992C138.15 430.093 138.891 431.188 139.646 432.276L140.468 431.706C141.588 433.321 142.739 434.923 143.917 436.511L143.114 437.107C143.9 438.166 144.698 439.22 145.508 440.267L146.3 439.656C147.502 441.211 148.73 442.753 149.981 444.284L149.207 444.917C150.041 445.938 150.886 446.953 151.741 447.963L152.504 447.318C153.774 448.819 155.066 450.309 156.377 451.79L155.629 452.453C156.501 453.438 157.383 454.418 158.272 455.394L159.011 454.72C160.336 456.174 161.679 457.619 163.038 459.054L162.312 459.742C163.217 460.698 164.129 461.65 165.047 462.598L165.765 461.902C167.134 463.316 168.518 464.721 169.914 466.119L169.207 466.825C170.137 467.757 171.073 468.685 172.014 469.61L172.715 468.897C174.119 470.277 175.534 471.65 176.959 473.017L176.266 473.739C177.216 474.65 178.17 475.559 179.127 476.464L179.814 475.738C181.245 477.093 182.684 478.441 184.129 479.785L183.448 480.517C184.412 481.413 185.378 482.307 186.346 483.199L187.023 482.463C188.474 483.799 189.93 485.13 191.387 486.457L190.714 487.196C191.688 488.082 192.662 488.966 193.637 489.849L194.308 489.107C195.772 490.432 197.236 491.752 198.701 493.07L198.032 493.813C199.01 494.693 199.988 495.572 200.964 496.45L201.632 495.706C202.176 496.194 202.718 496.681 203.261 497.168C204.186 497.999 205.111 498.83 206.033 499.659L205.365 500.403C206.344 501.283 207.321 502.162 208.296 503.04L208.965 502.297C210.434 503.62 211.898 504.942 213.354 506.263L212.682 507.003C213.658 507.889 214.63 508.773 215.598 509.657L216.272 508.919C217.734 510.254 219.186 511.588 220.627 512.922L219.948 513.656C220.429 514.101 220.909 514.547 221.388 514.992C221.875 515.446 222.363 515.899 222.852 516.35L223.531 515.615C224.996 516.968 226.468 518.31 227.946 519.641L227.277 520.384C228.267 521.275 229.26 522.161 230.256 523.043L230.918 522.294C232.412 523.615 233.912 524.925 235.419 526.224L234.766 526.982C235.775 527.851 236.787 528.716 237.802 529.575L238.448 528.812C239.97 530.1 241.498 531.377 243.034 532.642L242.398 533.414C243.426 534.261 244.457 535.103 245.492 535.939L246.12 535.161C247.67 536.415 249.228 537.657 250.793 538.886L250.175 539.673C251.222 540.495 252.272 541.313 253.326 542.125L253.936 541.333C255.515 542.55 257.101 543.755 258.695 544.947L258.096 545.748C259.162 546.546 260.231 547.338 261.304 548.125L261.896 547.318C263.503 548.497 265.118 549.663 266.74 550.816L266.161 551.631C267.246 552.403 268.335 553.169 269.427 553.929L269.999 553.108C271.634 554.247 273.278 555.372 274.929 556.485L274.37 557.314C275.474 558.058 276.582 558.796 277.693 559.529L278.244 558.694C279.907 559.79 281.579 560.873 283.258 561.943L282.721 562.787C283.844 563.502 284.971 564.212 286.101 564.915L286.629 564.066C288.32 565.119 290.019 566.158 291.727 567.184L291.212 568.041C292.353 568.726 293.498 569.406 294.647 570.079L295.153 569.217C296.871 570.224 298.597 571.218 300.332 572.197L299.84 573.068C300.999 573.723 302.162 574.371 303.328 575.014L303.811 574.138C305.555 575.098 307.308 576.044 309.069 576.976L308.601 577.86C309.777 578.483 310.957 579.099 312.141 579.71L312.6 578.821C314.369 579.733 316.147 580.63 317.934 581.514L317.491 582.41C318.684 583 319.881 583.583 321.081 584.16L321.515 583.259C323.308 584.121 325.111 584.969 326.922 585.802L326.504 586.71C327.713 587.266 328.926 587.816 330.143 588.359L330.55 587.446C332.367 588.257 334.193 589.054 336.027 589.835L335.635 590.755C336.859 591.277 338.087 591.792 339.319 592.3L339.701 591.376C341.54 592.135 343.387 592.879 345.244 593.608L344.878 594.539C346.116 595.026 347.358 595.505 348.605 595.979L348.96 595.044C350.819 595.75 352.687 596.441 354.564 597.117L354.225 598.057C354.852 598.283 355.479 598.507 356.108 598.73C356.729 598.949 357.35 599.168 357.971 599.386L358.302 598.442C360.164 599.095 362.029 599.74 363.897 600.376L363.574 601.322C364.822 601.747 366.07 602.168 367.32 602.585L367.636 601.636C369.508 602.261 371.383 602.877 373.26 603.482L372.953 604.434C374.207 604.839 375.462 605.239 376.719 605.635L377.019 604.681C378.902 605.274 380.787 605.857 382.675 606.429L382.384 607.386C383.646 607.769 384.909 608.146 386.172 608.519L386.455 607.56C388.349 608.118 390.244 608.665 392.142 609.2L391.871 610.162C393.14 610.52 394.411 610.872 395.682 611.219L395.945 610.254C397.85 610.774 399.756 611.281 401.665 611.775L401.415 612.743C402.692 613.074 403.97 613.398 405.249 613.717L405.49 612.746C407.406 613.224 409.324 613.687 411.244 614.137L411.016 615.11C412.3 615.411 413.586 615.705 414.872 615.993L415.091 615.017C417.017 615.448 418.946 615.864 420.876 616.265L420.673 617.244C421.965 617.512 423.258 617.774 424.552 618.028L424.744 617.047C426.682 617.427 428.621 617.792 430.562 618.14L430.385 619.124C431.684 619.357 432.984 619.583 434.284 619.8L434.45 618.814C436.397 619.14 438.345 619.449 440.296 619.741L440.148 620.73C441.453 620.924 442.759 621.111 444.066 621.29L444.202 620.299C446.158 620.567 448.115 620.816 450.073 621.046L449.957 622.039C451.268 622.193 452.579 622.339 453.892 622.476L453.995 621.481C455.958 621.686 457.923 621.871 459.888 622.035L459.805 623.032C461.12 623.142 462.436 623.244 463.753 623.336L463.823 622.338C465.791 622.476 467.76 622.592 469.731 622.688L469.683 623.687C471.001 623.751 472.32 623.805 473.64 623.85L473.674 622.85C475.645 622.917 477.618 622.961 479.591 622.984L479.58 623.984C480.9 623.998 482.22 624.003 483.541 623.998L483.537 622.998C485.509 622.99 487.482 622.959 489.456 622.904L489.483 623.904C490.803 623.867 492.122 623.82 493.442 623.762L493.399 622.763C495.368 622.677 497.338 622.567 499.309 622.432L499.377 623.43C500.693 623.34 502.01 623.239 503.327 623.127L503.242 622.13C505.205 621.963 507.169 621.771 509.133 621.554L509.243 622.548C510.554 622.402 511.866 622.246 513.178 622.078L513.051 621.086C515.004 620.836 516.957 620.56 518.911 620.257L519.064 621.246C519.717 621.145 520.37 621.041 521.023 620.934C521.297 620.889 521.57 620.844 521.843 620.799C522.241 620.733 522.64 620.667 523.038 620.6L522.872 619.613C524.881 619.276 526.89 618.924 528.897 618.56L529.076 619.544C530.416 619.3 531.755 619.05 533.094 618.794L532.906 617.812C534.908 617.43 536.908 617.033 538.905 616.623L539.107 617.602C540.441 617.328 541.774 617.047 543.106 616.76L542.896 615.782C544.888 615.353 546.878 614.909 548.865 614.45L549.09 615.424C550.417 615.118 551.743 614.805 553.068 614.485L552.833 613.513C554.815 613.034 556.793 612.54 558.767 612.031L559.017 612.999C560.337 612.659 561.655 612.311 562.97 611.957L562.71 610.992C564.679 610.461 566.644 609.915 568.603 609.353L568.879 610.314C570.189 609.938 571.497 609.555 572.802 609.165L572.516 608.207C574.47 607.622 576.418 607.021 578.361 606.404L578.664 607.357C579.963 606.944 581.259 606.523 582.553 606.095L582.239 605.146C584.175 604.505 586.105 603.847 588.027 603.171L588.359 604.115C589.646 603.662 590.929 603.202 592.209 602.734L591.866 601.795C593.782 601.095 595.691 600.377 597.59 599.641L597.952 600.573C599.224 600.08 600.492 599.579 601.756 599.07L601.383 598.143C603.275 597.381 605.159 596.6 607.033 595.801L607.425 596.721C608.68 596.185 609.931 595.642 611.177 595.089L610.772 594.175C612.637 593.349 614.493 592.503 616.337 591.638L616.762 592.543C617.997 591.964 619.228 591.376 620.453 590.779L620.015 589.88C621.85 588.986 623.673 588.073 625.484 587.14L625.942 588.029C627.155 587.403 628.363 586.769 629.566 586.125L629.094 585.244C630.892 584.281 632.678 583.298 634.452 582.295L634.944 583.165C636.132 582.492 637.314 581.81 638.491 581.119L637.984 580.257C639.742 579.223 641.487 578.169 643.218 577.092L643.746 577.942C644.905 577.221 646.058 576.49 647.204 575.75L646.662 574.91C648.374 573.804 650.073 572.676 651.756 571.526L652.32 572.351C653.447 571.581 654.567 570.801 655.68 570.011L655.102 569.195C656.764 568.015 658.41 566.813 660.04 565.588L660.641 566.387C661.732 565.567 662.816 564.737 663.893 563.896L663.277 563.108C664.883 561.854 666.472 560.577 668.044 559.276L668.682 560.046C669.733 559.177 670.777 558.296 671.812 557.405L671.16 556.647C672.704 555.319 674.23 553.967 675.739 552.591L676.412 553.33C677.42 552.411 678.42 551.481 679.411 550.54L678.723 549.815C680.199 548.414 681.657 546.989 683.096 545.539L683.806 546.244C684.287 545.759 684.766 545.271 685.243 544.781C685.709 544.303 686.172 543.822 686.632 543.34L685.909 542.65C687.286 541.209 688.641 539.751 689.975 538.278L690.716 538.95C691.611 537.961 692.497 536.966 693.372 535.964L692.619 535.306C693.93 533.805 695.22 532.29 696.488 530.759L697.258 531.397C698.109 530.37 698.95 529.336 699.782 528.296L699.002 527.671C700.245 526.116 701.468 524.546 702.67 522.962L703.467 523.566C704.273 522.505 705.069 521.437 705.856 520.362L705.05 519.771C706.226 518.165 707.382 516.546 708.518 514.912L709.339 515.483C710.099 514.389 710.851 513.289 711.593 512.183L710.763 511.626C711.872 509.974 712.962 508.308 714.031 506.63L714.875 507.167C715.59 506.044 716.297 504.915 716.995 503.781L716.144 503.257C717.186 501.562 718.209 499.855 719.213 498.136L720.077 498.64C720.748 497.491 721.411 496.336 722.065 495.175L721.194 494.684C722.171 492.951 723.129 491.207 724.068 489.452L724.95 489.923C725.578 488.749 726.198 487.571 726.809 486.387L725.92 485.928C726.833 484.161 727.727 482.383 728.603 480.595L729.501 481.035C730.086 479.839 730.663 478.639 731.232 477.435L730.328 477.008C731.178 475.21 732.01 473.402 732.823 471.584L733.736 471.993C734.28 470.779 734.816 469.56 735.344 468.338L734.425 467.941C735.214 466.115 735.985 464.281 736.738 462.437L737.664 462.816C738.168 461.584 738.663 460.349 739.151 459.11L738.221 458.743C738.95 456.893 739.662 455.035 740.357 453.169L741.294 453.518C741.758 452.271 742.215 451.021 742.665 449.767L741.723 449.43C742.395 447.558 743.05 445.678 743.688 443.792L744.635 444.113C745.062 442.853 745.481 441.59 745.893 440.325L744.942 440.015C745.557 438.124 746.157 436.226 746.74 434.322L747.696 434.615C748.086 433.344 748.469 432.069 748.845 430.793L747.886 430.51C748.447 428.602 748.994 426.688 749.524 424.769L750.488 425.036C750.843 423.754 751.19 422.47 751.531 421.183L750.564 420.927C751.074 419.004 751.569 417.076 752.048 415.144L753.019 415.385C753.339 414.095 753.653 412.802 753.96 411.508L752.987 411.277C753.447 409.341 753.891 407.401 754.321 405.457L755.298 405.674C755.585 404.375 755.866 403.075 756.141 401.774L755.162 401.567C755.573 399.62 755.97 397.669 756.353 395.717L757.334 395.909C757.59 394.604 757.839 393.297 758.082 391.99L757.099 391.807C757.463 389.85 757.813 387.891 758.15 385.93L759.135 386.099C759.36 384.788 759.579 383.477 759.792 382.164L758.805 382.004C759.124 380.039 759.429 378.072 759.721 376.104L760.71 376.251C760.808 375.594 760.904 374.936 760.999 374.278C761.093 373.619 761.187 372.959 761.278 372.3L760.288 372.162C760.562 370.188 760.822 368.211 761.067 366.232L762.059 366.355C762.223 365.033 762.38 363.71 762.531 362.386L761.537 362.273C761.763 360.292 761.973 358.31 762.168 356.326L763.163 356.424C763.294 355.098 763.418 353.771 763.535 352.444L762.539 352.356C762.714 350.37 762.874 348.383 763.018 346.395L764.015 346.467C764.112 345.138 764.201 343.808 764.284 342.479L763.286 342.417C763.409 340.426 763.517 338.436 763.609 336.445L764.608 336.491C764.669 335.16 764.724 333.828 764.771 332.497L763.771 332.461C763.842 330.468 763.896 328.476 763.934 326.483L764.934 326.502C764.959 325.169 764.978 323.837 764.988 322.504L763.988 322.496C764.004 320.502 764.004 318.508 763.987 316.516L764.987 316.507C764.975 315.174 764.956 313.841 764.929 312.509L763.929 312.529C763.889 310.535 763.833 308.542 763.758 306.551L764.758 306.513C764.708 305.181 764.651 303.85 764.586 302.519L763.587 302.568C763.489 300.576 763.374 298.585 763.242 296.597L764.24 296.531C764.151 295.2 764.054 293.87 763.95 292.542L762.953 292.62C762.796 290.632 762.622 288.646 762.429 286.663L763.424 286.566C763.295 285.239 763.158 283.913 763.013 282.588L762.019 282.697C761.802 280.714 761.566 278.735 761.312 276.758L762.304 276.631C762.134 275.308 761.955 273.987 761.768 272.667L760.778 272.807C760.499 270.833 760.201 268.862 759.883 266.894L760.87 266.735C760.658 265.418 760.437 264.103 760.208 262.79L759.223 262.962C758.88 260.998 758.517 259.038 758.135 257.081L759.117 256.89C758.861 255.581 758.597 254.274 758.324 252.969L757.345 253.173C756.937 251.222 756.509 249.275 756.061 247.332L757.035 247.108C756.735 245.808 756.427 244.511 756.109 243.216L755.138 243.454C754.663 241.518 754.169 239.586 753.653 237.661L754.62 237.402C754.275 236.114 753.921 234.828 753.558 233.544L752.596 233.816C752.054 231.898 751.491 229.986 750.908 228.079L751.864 227.786C751.474 226.511 751.074 225.239 750.665 223.969L749.713 224.275C749.103 222.378 748.471 220.488 747.819 218.603L748.763 218.276C748.327 217.016 747.881 215.759 747.426 214.504L746.486 214.845C745.806 212.973 745.105 211.106 744.383 209.247L745.315 208.885C744.831 207.642 744.339 206.402 743.837 205.165L742.91 205.541C742.161 203.696 741.39 201.857 740.597 200.026L741.514 199.629C740.985 198.406 740.446 197.186 739.897 195.969L738.985 196.381C738.166 194.566 737.325 192.758 736.462 190.959L737.364 190.526C737.075 189.925 736.784 189.324 736.49 188.724C736.201 188.132 735.909 187.541 735.615 186.953L734.72 187.4C733.84 185.64 732.939 183.894 732.017 182.163L732.9 181.693C732.282 180.531 731.654 179.375 731.017 178.227L730.143 178.711C729.189 176.991 728.215 175.284 727.221 173.592L728.084 173.086C727.417 171.95 726.741 170.821 726.057 169.699L725.203 170.219C724.179 168.54 723.136 166.876 722.074 165.225L722.915 164.684C722.203 163.577 721.482 162.477 720.753 161.383L719.921 161.938C718.831 160.302 717.722 158.68 716.595 157.072L717.414 156.498C716.659 155.421 715.896 154.35 715.126 153.286L714.316 153.872C713.163 152.28 711.993 150.702 710.805 149.138L711.602 148.533C710.807 147.486 710.004 146.445 709.193 145.409L708.406 146.026C707.195 144.479 705.967 142.945 704.723 141.424L705.497 140.791C704.664 139.774 703.825 138.763 702.978 137.757L702.213 138.401C700.948 136.899 699.666 135.41 698.37 133.933L699.121 133.273C698.254 132.286 697.38 131.304 696.499 130.328L695.756 130.998C694.441 129.54 693.11 128.095 691.764 126.662L692.493 125.978C691.594 125.02 690.688 124.068 689.776 123.121L689.056 123.815C687.694 122.401 686.317 120.999 684.927 119.609L685.634 118.902C684.705 117.973 683.771 117.05 682.83 116.132L682.132 116.848C680.726 115.477 679.308 114.118 677.876 112.77L678.562 112.042C677.606 111.142 676.644 110.247 675.677 109.357L675 110.093C673.555 108.763 672.098 107.445 670.629 106.138L671.294 105.391C670.313 104.518 669.327 103.651 668.336 102.788L667.679 103.542C666.198 102.253 664.706 100.975 663.203 99.708L663.847 98.9434C662.843 98.0975 661.835 97.2564 660.822 96.4202L660.186 97.1914C658.671 95.9412 657.147 94.7018 655.612 93.473L656.237 92.6925C655.213 91.872 654.184 91.0562 653.151 90.245L652.533 91.0316C650.989 89.8189 649.435 88.6165 647.872 87.4244L648.478 86.6293C647.435 85.8333 646.387 85.0418 645.336 84.2548L644.737 85.0553C643.164 83.8784 641.583 82.7116 639.995 81.5546L640.583 80.7462C639.523 79.9737 638.458 79.2056 637.391 78.4418L636.809 79.2552C635.211 78.1124 633.606 76.9793 631.994 75.8557L632.565 75.0353C631.489 74.285 630.409 73.5389 629.326 72.797L628.761 73.6219C627.14 72.5116 625.513 71.4106 623.879 70.3188L624.435 69.4874C623.344 68.7582 622.25 68.0331 621.154 67.312L620.604 68.1475C618.963 67.0679 617.315 65.9973 615.662 64.9356L616.203 64.0942C615.098 63.3849 613.992 62.6796 612.883 61.9782L612.349 62.8233C610.688 61.7726 609.022 60.7307 607.352 59.6973L607.878 58.8469C607.32 58.5018 606.762 58.1577 606.203 57.8145Z" stroke="#3B3A35" stroke-width="2" stroke-miterlimit="1.30541" stroke-dasharray="4 6"/>
<path d="M324.335 360.833L309.085 376.083L314.643 381.642L319.018 377.268C321.805 374.48 324.746 372.49 327.84 371.298C330.933 370.106 333.922 369.808 336.806 370.404C339.69 370.968 342.252 372.369 344.492 374.609C347.956 378.073 349.479 382.174 349.06 386.911C348.657 391.632 346.288 396.16 341.954 400.494L329.193 413.255L294.003 378.065L317.785 354.283L324.335 360.833ZM321.169 388.168L331.199 398.198L335.549 393.847C337.273 392.123 338.151 390.278 338.184 388.313C338.232 386.331 337.491 384.575 335.96 383.044C334.51 381.594 332.842 380.925 330.957 381.038C329.072 381.151 327.243 382.093 325.471 383.866L321.169 388.168ZM370.135 346.549C374.195 350.61 376.523 354.775 377.119 359.044C377.716 363.282 376.459 366.956 373.349 370.065C370.948 372.466 368.096 373.562 364.793 373.352L376.999 385.558L368.854 393.702L332.649 357.498L340.262 349.885L342.921 352.06C342.55 348.563 343.638 345.542 346.184 342.996C349.406 339.774 353.104 338.461 357.277 339.057C361.434 339.637 365.591 342.006 369.748 346.163L370.135 346.549ZM361.482 354.187C356.842 349.546 353.168 348.579 350.461 351.286C348.528 353.22 347.932 355.202 348.673 357.232L358.969 367.528C361.128 368.269 363.158 367.689 365.059 365.788C367.653 363.193 366.751 359.616 362.352 355.057L361.482 354.187ZM399.766 343.649C395.754 347.661 391.315 349.715 386.449 349.812C381.567 349.893 377.208 348.016 373.373 344.181L372.697 343.504C370.022 340.829 368.153 337.977 367.089 334.948C366.042 331.903 365.913 328.874 366.703 325.861C367.476 322.832 369.168 320.012 371.778 317.402C375.452 313.728 379.496 311.972 383.911 312.133C388.31 312.278 392.547 314.389 396.624 318.465L399.79 321.631L383.597 337.824C385.353 339.001 387.141 339.516 388.962 339.371C390.783 339.226 392.475 338.372 394.038 336.809C396.616 334.231 397.727 331.315 397.373 328.06L405.494 328.737C405.88 331.154 405.558 333.716 404.527 336.423C403.496 339.097 401.908 341.506 399.766 343.649ZM378.014 323.734C375.629 326.119 375.79 329.116 378.497 332.725L386.714 324.507L386.086 323.879C384.813 322.542 383.476 321.865 382.074 321.849C380.656 321.817 379.303 322.445 378.014 323.734ZM436.889 305.559L428.72 313.728L419.028 304.037L411.898 311.166L421.59 320.858L413.445 329.003L387.294 302.852L395.439 294.707L405.639 304.907L412.768 297.777L402.569 287.578L410.738 279.409L436.889 305.559ZM435.753 294.127C435.753 291.517 435.398 289.278 434.689 287.408C433.996 285.523 432.844 283.678 431.233 281.874L429.517 280.013L419.971 270.176L440.345 249.802L460.211 269.669L464.127 265.753L478.338 279.965L470.169 288.134L462.242 280.206L448.079 294.369L456.006 302.296L447.644 310.659L433.408 296.472L435.753 294.127ZM445.13 284.75L452.091 277.789L438.508 264.207L434.327 268.388L436.454 270.563C441.046 275.381 443.938 280.11 445.13 284.75ZM461.831 228.316L470 220.147L496.15 246.298L487.981 254.467L472.755 239.24L480.803 261.645L472.61 269.838L446.459 243.687L454.653 235.494L469.831 250.672L461.831 228.316ZM511.908 204.776C515.969 208.836 518.297 213.001 518.893 217.271C519.489 221.509 518.232 225.182 515.123 228.292C512.722 230.693 509.87 231.788 506.567 231.579L518.772 243.784L510.627 251.929L474.423 215.724L482.036 208.111L484.694 210.286C484.324 206.79 485.411 203.769 487.957 201.223C491.18 198 494.877 196.687 499.051 197.283C503.208 197.863 507.365 200.232 511.522 204.389L511.908 204.776ZM503.256 212.413C498.615 207.773 494.942 206.806 492.235 209.513C490.301 211.446 489.705 213.428 490.446 215.458L500.742 225.754C502.901 226.495 504.932 225.915 506.833 224.014C509.427 221.42 508.525 217.843 504.126 213.283L503.256 212.413ZM514.059 201.755C511.449 199.144 509.636 196.317 508.621 193.271C507.59 190.21 507.477 187.181 508.283 184.184C509.089 181.187 510.772 178.408 513.334 175.846C517.25 171.93 521.552 170.061 526.24 170.239C530.913 170.4 535.336 172.567 539.509 176.74L539.799 177.03C543.875 181.107 545.978 185.481 546.107 190.154C546.236 194.794 544.367 199.048 540.5 202.915C536.778 206.637 532.677 208.514 528.198 208.546C523.703 208.562 519.457 206.75 515.461 203.108L514.059 201.755ZM522.712 194.117C525.129 196.534 527.28 197.928 529.165 198.299C531.05 198.669 532.734 198.113 534.216 196.631C537.116 193.731 536.367 190.017 531.968 185.489L531.147 184.667C526.458 179.979 522.615 179.133 519.618 182.13C516.895 184.853 517.443 188.349 521.262 192.619L522.712 194.117ZM432.758 425.655L406.607 399.505L417.822 388.291C421.415 384.698 424.79 382.579 427.948 381.934C431.122 381.274 433.894 382.128 436.262 384.496C437.471 385.705 438.139 387.211 438.268 389.016C438.381 390.804 437.89 392.762 436.794 394.889C439.227 393.165 441.523 392.254 443.682 392.158C445.825 392.045 447.662 392.754 449.193 394.284C451.658 396.75 452.584 399.545 451.972 402.671C451.36 405.765 449.313 409.068 445.833 412.58L432.758 425.655ZM430.268 406.828L434.691 411.251L439.453 406.49C440.468 405.475 441.015 404.572 441.096 403.783C441.177 402.993 440.854 402.236 440.129 401.511C438.679 400.061 437.084 400.141 435.344 401.753L430.268 406.828ZM425.241 401.801L428.601 398.442C429.584 397.459 430.107 396.613 430.172 395.904C430.236 395.163 429.946 394.47 429.302 393.825C428.464 392.987 427.634 392.641 426.812 392.786C425.991 392.931 425.072 393.511 424.057 394.526L421.012 397.571L425.241 401.801ZM474.739 383.674C473.917 383.433 472.878 382.909 471.621 382.103C472.008 385.487 470.856 388.524 468.165 391.215C465.7 393.68 462.864 395.034 459.658 395.275C456.435 395.501 453.696 394.486 451.44 392.23C448.604 389.394 447.509 386.204 448.153 382.659C448.798 379.115 451.118 375.344 455.114 371.348L457.627 368.835L456.25 367.457C453.849 365.056 451.609 364.895 449.531 366.974C447.597 368.907 447.581 370.825 449.483 372.726L441.338 380.871C438.808 378.341 437.825 375.215 438.389 371.493C438.969 367.755 440.927 364.219 444.262 360.883C447.597 357.548 451.046 355.727 454.606 355.421C458.167 355.115 461.39 356.356 464.274 359.143L475.851 370.72C478.284 373.089 480.491 374.555 482.473 375.119L482.884 375.53L474.739 383.674ZM464.322 383.457C465.337 382.442 465.958 381.386 466.183 380.291C466.425 379.179 466.417 378.204 466.159 377.366L461.978 373.185L459.609 375.554C456.773 378.39 456.628 381.08 459.174 383.626C459.915 384.367 460.769 384.722 461.736 384.69C462.687 384.641 463.549 384.23 464.322 383.457ZM509.59 348.823L501.421 356.992L491.729 347.301L484.6 354.43L494.291 364.122L486.146 372.267L459.996 346.116L468.141 337.971L478.34 348.171L485.47 341.041L475.271 330.842L483.44 322.673L509.59 348.823ZM503.113 302.999L511.282 294.83L537.432 320.981L529.263 329.15L514.037 313.924L522.085 336.328L513.892 344.521L487.742 318.371L495.935 310.177L511.113 325.355L503.113 302.999ZM554.931 304.449C550.919 308.461 546.48 310.516 541.614 310.612C536.732 310.693 532.373 308.816 528.538 304.981L527.862 304.304C525.187 301.63 523.318 298.778 522.255 295.749C521.207 292.704 521.078 289.674 521.868 286.661C522.641 283.632 524.333 280.813 526.943 278.202C530.617 274.529 534.661 272.772 539.076 272.934C543.475 273.079 547.712 275.189 551.789 279.266L554.955 282.432L538.762 298.625C540.518 299.801 542.306 300.317 544.127 300.172C545.948 300.027 547.64 299.173 549.203 297.61C551.781 295.032 552.892 292.115 552.538 288.861L560.659 289.537C561.045 291.954 560.723 294.516 559.692 297.223C558.661 299.898 557.074 302.307 554.931 304.449ZM533.179 284.534C530.794 286.919 530.955 289.916 533.662 293.525L541.879 285.308L541.251 284.679C539.978 283.342 538.641 282.665 537.239 282.649C535.821 282.617 534.468 283.245 533.179 284.534Z" fill="#D0CDD4"/>
<path d="M727.317 389.083C710.722 375.307 689.075 371.105 669.825 368.826C660.226 367.69 651.101 370.136 643.536 372.165C643.349 372.215 643.164 372.264 642.979 372.314C634.797 374.505 628.28 376.154 621.794 375.374C616.517 374.739 611.094 372.843 605.271 370.184C601.509 368.466 597.977 366.629 594.285 364.709C592.057 363.55 589.77 362.361 587.339 361.149C575.371 355.183 560.902 349.154 545.555 354.679C531.911 359.592 523.176 370.763 517.399 382.729C511.616 394.708 508.324 408.445 506.053 420.084C501.425 443.792 507.73 467.804 517.137 488.484C521.711 498.54 528.937 506.171 535.974 512.797C537.968 514.675 539.915 516.447 541.808 518.171C546.89 522.798 551.584 527.072 555.755 532.072C559.932 537.077 563.317 542.448 566.975 548.251C568.312 550.372 569.685 552.551 571.147 554.79C576.388 562.821 582.542 571.208 591.44 577.577C592.994 578.689 594.616 579.872 596.294 581.096C603.914 586.654 612.703 593.065 621.714 597.654C632.805 603.302 645.798 607.044 659.085 602.426C673.695 597.348 679.794 583.673 684.128 572.414C684.873 570.48 685.565 568.612 686.239 566.792C687.698 562.852 689.073 559.14 690.718 555.478C693.057 550.268 695.597 546.018 698.792 542.837C704.084 537.571 711.463 534.823 720.707 531.381C721.423 531.114 722.149 530.844 722.887 530.568C732.329 527.032 743.854 522.441 750.937 511.844C763.993 492.31 765.668 467.13 761.412 445.479C757.076 423.418 744.442 403.298 727.317 389.083Z" fill="#D0CDD4" stroke="white" stroke-width="15"/>
<path d="M27.5381 256.034C19.2046 288.898 34.8713 321.383 52.0294 348.495C68.3656 374.307 91.6046 394.642 120.924 404.211C150.886 413.99 184.926 416.56 213.443 400.803C242.06 384.992 257.261 354.46 265.936 324.199C274.618 293.914 277.763 260.051 262.016 231.417C246.251 202.751 216.119 186.948 185.732 178.435C155.293 169.907 122.777 170.029 93.8831 184.119C63.9743 198.705 36.0016 222.657 27.5381 256.034Z" fill="#D0CDD4" stroke="white" stroke-width="8"/>
</svg>
