<svg width="771" height="621" viewBox="0 0 771 621" fill="none" xmlns="http://www.w3.org/2000/svg">
<path d="M599.063 65.7504C650.614 97.4186 697.953 137.438 724.558 191.834C751.498 246.912 756.877 309.846 748.145 370.552C739.439 431.069 717.826 490.96 675.229 534.752C633.867 577.276 575.625 598.473 517.13 608.05C463.319 616.86 409.712 604.828 358.3 586.639C309.289 569.3 266.567 541.384 228.497 505.937C186.771 467.088 134.699 428.613 127.744 371.978C120.806 315.478 163.96 266.865 193.139 218.016C219.208 174.371 249.951 136.15 288.429 102.965C332.203 65.2112 374.572 18.9391 431.928 12.0677C491.221 4.96433 548.159 34.4791 599.063 65.7504Z" fill="#F0F0F0"/>
<path d="M324.335 358.833L309.085 374.083L314.643 379.642L319.018 375.268C321.805 372.48 324.746 370.49 327.84 369.298C330.933 368.106 333.922 367.808 336.806 368.404C339.69 368.968 342.252 370.369 344.492 372.609C347.956 376.073 349.479 380.174 349.06 384.911C348.657 389.632 346.288 394.16 341.954 398.494L329.193 411.255L294.003 376.065L317.785 352.283L324.335 358.833ZM321.169 386.168L331.199 396.198L335.549 391.847C337.273 390.123 338.151 388.278 338.184 386.313C338.232 384.331 337.491 382.575 335.96 381.044C334.51 379.594 332.842 378.925 330.957 379.038C329.072 379.151 327.243 380.093 325.471 381.866L321.169 386.168ZM370.135 344.549C374.195 348.61 376.523 352.775 377.119 357.044C377.716 361.282 376.459 364.956 373.349 368.065C370.948 370.466 368.096 371.562 364.793 371.352L376.999 383.558L368.854 391.702L332.649 355.498L340.262 347.885L342.921 350.06C342.55 346.563 343.638 343.542 346.184 340.996C349.406 337.774 353.104 336.461 357.277 337.057C361.434 337.637 365.591 340.006 369.748 344.163L370.135 344.549ZM361.482 352.187C356.842 347.546 353.168 346.579 350.461 349.286C348.528 351.22 347.932 353.202 348.673 355.232L358.969 365.528C361.128 366.269 363.158 365.689 365.059 363.788C367.653 361.193 366.751 357.616 362.352 353.057L361.482 352.187ZM399.766 341.649C395.754 345.661 391.315 347.715 386.449 347.812C381.567 347.893 377.208 346.016 373.373 342.181L372.697 341.504C370.022 338.829 368.153 335.977 367.089 332.948C366.042 329.903 365.913 326.874 366.703 323.861C367.476 320.832 369.168 318.012 371.778 315.402C375.452 311.728 379.496 309.972 383.911 310.133C388.31 310.278 392.547 312.389 396.624 316.465L399.79 319.631L383.597 335.824C385.353 337.001 387.141 337.516 388.962 337.371C390.783 337.226 392.475 336.372 394.038 334.809C396.616 332.231 397.727 329.315 397.373 326.06L405.494 326.737C405.88 329.154 405.558 331.716 404.527 334.423C403.496 337.097 401.908 339.506 399.766 341.649ZM378.014 321.734C375.629 324.119 375.79 327.116 378.497 330.725L386.714 322.507L386.086 321.879C384.813 320.542 383.476 319.865 382.074 319.849C380.656 319.817 379.303 320.445 378.014 321.734ZM436.889 303.559L428.72 311.728L419.028 302.037L411.898 309.166L421.59 318.858L413.445 327.003L387.294 300.852L395.439 292.707L405.639 302.907L412.768 295.777L402.569 285.578L410.738 277.409L436.889 303.559ZM435.753 292.127C435.753 289.517 435.398 287.278 434.689 285.408C433.996 283.523 432.844 281.678 431.233 279.874L429.517 278.013L419.971 268.176L440.345 247.802L460.211 267.669L464.127 263.753L478.338 277.965L470.169 286.134L462.242 278.206L448.079 292.369L456.006 300.296L447.644 308.659L433.408 294.472L435.753 292.127ZM445.13 282.75L452.091 275.789L438.508 262.207L434.327 266.388L436.454 268.563C441.046 273.381 443.938 278.11 445.13 282.75ZM461.831 226.316L470 218.147L496.15 244.298L487.981 252.467L472.755 237.24L480.803 259.645L472.61 267.838L446.459 241.687L454.653 233.494L469.831 248.672L461.831 226.316ZM511.908 202.776C515.969 206.836 518.297 211.001 518.893 215.271C519.489 219.509 518.232 223.182 515.123 226.292C512.722 228.693 509.87 229.788 506.567 229.579L518.772 241.784L510.627 249.929L474.423 213.724L482.036 206.111L484.694 208.286C484.324 204.79 485.411 201.769 487.957 199.223C491.18 196 494.877 194.687 499.051 195.283C503.208 195.863 507.365 198.232 511.522 202.389L511.908 202.776ZM503.256 210.413C498.615 205.773 494.942 204.806 492.235 207.513C490.301 209.446 489.705 211.428 490.446 213.458L500.742 223.754C502.901 224.495 504.932 223.915 506.833 222.014C509.427 219.42 508.525 215.843 504.126 211.283L503.256 210.413ZM514.059 199.755C511.449 197.144 509.636 194.317 508.621 191.271C507.59 188.21 507.477 185.181 508.283 182.184C509.089 179.187 510.772 176.408 513.334 173.846C517.25 169.93 521.552 168.061 526.24 168.239C530.913 168.4 535.336 170.567 539.509 174.74L539.799 175.03C543.875 179.107 545.978 183.481 546.107 188.154C546.236 192.794 544.367 197.048 540.5 200.915C536.778 204.637 532.677 206.514 528.198 206.546C523.703 206.562 519.457 204.75 515.461 201.108L514.059 199.755ZM522.712 192.117C525.129 194.534 527.28 195.928 529.165 196.299C531.05 196.669 532.734 196.113 534.216 194.631C537.116 191.731 536.367 188.017 531.968 183.489L531.147 182.667C526.458 177.979 522.615 177.133 519.618 180.13C516.895 182.853 517.443 186.349 521.262 190.619L522.712 192.117ZM432.758 423.655L406.607 397.505L417.822 386.291C421.415 382.698 424.79 380.579 427.948 379.934C431.122 379.274 433.894 380.128 436.262 382.496C437.471 383.705 438.139 385.211 438.268 387.016C438.381 388.804 437.89 390.762 436.794 392.889C439.227 391.165 441.523 390.254 443.682 390.158C445.825 390.045 447.662 390.754 449.193 392.284C451.658 394.75 452.584 397.545 451.972 400.671C451.36 403.765 449.313 407.068 445.833 410.58L432.758 423.655ZM430.268 404.828L434.691 409.251L439.453 404.49C440.468 403.475 441.015 402.572 441.096 401.783C441.177 400.993 440.854 400.236 440.129 399.511C438.679 398.061 437.084 398.141 435.344 399.753L430.268 404.828ZM425.241 399.801L428.601 396.442C429.584 395.459 430.107 394.613 430.172 393.904C430.236 393.163 429.946 392.47 429.302 391.825C428.464 390.987 427.634 390.641 426.812 390.786C425.991 390.931 425.072 391.511 424.057 392.526L421.012 395.571L425.241 399.801ZM474.739 381.674C473.917 381.433 472.878 380.909 471.621 380.103C472.008 383.487 470.856 386.524 468.165 389.215C465.7 391.68 462.864 393.034 459.658 393.275C456.435 393.501 453.696 392.486 451.44 390.23C448.604 387.394 447.509 384.204 448.153 380.659C448.798 377.115 451.118 373.344 455.114 369.348L457.627 366.835L456.25 365.457C453.849 363.056 451.609 362.895 449.531 364.974C447.597 366.907 447.581 368.825 449.483 370.726L441.338 378.871C438.808 376.341 437.825 373.215 438.389 369.493C438.969 365.755 440.927 362.219 444.262 358.883C447.597 355.548 451.046 353.727 454.606 353.421C458.167 353.115 461.39 354.356 464.274 357.143L475.851 368.72C478.284 371.089 480.491 372.555 482.473 373.119L482.884 373.53L474.739 381.674ZM464.322 381.457C465.337 380.442 465.958 379.386 466.183 378.291C466.425 377.179 466.417 376.204 466.159 375.366L461.978 371.185L459.609 373.554C456.773 376.39 456.628 379.08 459.174 381.626C459.915 382.367 460.769 382.722 461.736 382.69C462.687 382.641 463.549 382.23 464.322 381.457ZM509.59 346.823L501.421 354.992L491.729 345.301L484.6 352.43L494.291 362.122L486.146 370.267L459.996 344.116L468.141 335.971L478.34 346.171L485.47 339.041L475.271 328.842L483.44 320.673L509.59 346.823ZM503.113 300.999L511.282 292.83L537.432 318.981L529.263 327.15L514.037 311.924L522.085 334.328L513.892 342.521L487.742 316.371L495.935 308.177L511.113 323.355L503.113 300.999ZM554.931 302.449C550.919 306.461 546.48 308.516 541.614 308.612C536.732 308.693 532.373 306.816 528.538 302.981L527.862 302.304C525.187 299.63 523.318 296.778 522.255 293.749C521.207 290.704 521.078 287.674 521.868 284.661C522.641 281.632 524.333 278.813 526.943 276.202C530.617 272.529 534.661 270.772 539.076 270.934C543.475 271.079 547.712 273.189 551.789 277.266L554.955 280.432L538.762 296.625C540.518 297.801 542.306 298.317 544.127 298.172C545.948 298.027 547.64 297.173 549.203 295.61C551.781 293.032 552.892 290.115 552.538 286.861L560.659 287.537C561.045 289.954 560.723 292.516 559.692 295.223C558.661 297.898 557.074 300.307 554.931 302.449ZM533.179 282.534C530.794 284.919 530.955 287.916 533.662 291.525L541.879 283.308L541.251 282.679C539.978 281.342 538.641 280.665 537.239 280.649C535.821 280.617 534.468 281.245 533.179 282.534Z" fill="#D0CDD4"/>
<path d="M727.317 387.083C710.722 373.307 689.075 369.105 669.825 366.826C660.226 365.69 651.101 368.136 643.536 370.165C643.349 370.215 643.164 370.264 642.979 370.314C634.797 372.505 628.28 374.154 621.794 373.374C616.517 372.739 611.094 370.843 605.271 368.184C601.509 366.466 597.977 364.629 594.285 362.709C592.057 361.55 589.77 360.361 587.339 359.149C575.371 353.183 560.902 347.154 545.555 352.679C531.911 357.592 523.176 368.763 517.399 380.729C511.616 392.708 508.324 406.445 506.053 418.084C501.425 441.792 507.73 465.804 517.137 486.484C521.711 496.54 528.937 504.171 535.974 510.797C537.968 512.675 539.915 514.447 541.808 516.171C546.89 520.798 551.584 525.072 555.755 530.072C559.932 535.077 563.317 540.448 566.975 546.251C568.312 548.372 569.685 550.551 571.147 552.79C576.388 560.821 582.542 569.208 591.44 575.577C592.994 576.689 594.616 577.872 596.294 579.096C603.914 584.654 612.703 591.065 621.714 595.654C632.805 601.302 645.798 605.044 659.085 600.426C673.695 595.348 679.794 581.673 684.128 570.414C684.873 568.48 685.565 566.612 686.239 564.792C687.698 560.852 689.073 557.14 690.718 553.478C693.057 548.268 695.597 544.018 698.792 540.837C704.084 535.571 711.463 532.823 720.707 529.381C721.423 529.114 722.149 528.844 722.887 528.568C732.329 525.032 743.854 520.441 750.937 509.844C763.993 490.31 765.668 465.13 761.412 443.479C757.076 421.418 744.442 401.298 727.317 387.083Z" fill="#D0CDD4" stroke="white" stroke-width="15"/>
<path d="M27.5381 254.034C19.2046 286.898 34.8713 319.383 52.0294 346.495C68.3656 372.307 91.6046 392.642 120.924 402.211C150.886 411.99 184.926 414.56 213.443 398.803C242.06 382.992 257.261 352.46 265.936 322.199C274.618 291.914 277.763 258.051 262.016 229.417C246.251 200.751 216.119 184.948 185.732 176.435C155.293 167.907 122.777 168.029 93.8831 182.119C63.9743 196.705 36.0016 220.657 27.5381 254.034Z" fill="#D0CDD4" stroke="white" stroke-width="8"/>
</svg>
