<svg width="19" height="12" viewBox="0 0 19 12" fill="none" xmlns="http://www.w3.org/2000/svg">
<path d="M9.83325 2.5C9.4895 2.53125 9.14575 2.5625 8.83325 2.65625C8.9895 2.90625 9.052 3.21875 9.08325 3.5C9.08325 4.46875 8.27075 5.25 7.33325 5.25C7.02075 5.25 6.70825 5.1875 6.4895 5.03125C6.39575 5.34375 6.33325 5.65625 6.33325 6C6.33325 7.9375 7.89575 9.5 9.83325 9.5C11.7708 9.5 13.3333 7.9375 13.3333 6C13.3333 4.09375 11.7708 2.53125 9.83325 2.53125V2.5ZM18.7083 5.5625C17.0208 2.25 13.6458 0 9.83325 0C5.9895 0 2.6145 2.25 0.927002 5.5625C0.864502 5.6875 0.833252 5.84375 0.833252 6C0.833252 6.1875 0.864502 6.34375 0.927002 6.46875C2.6145 9.78125 5.9895 12 9.83325 12C13.6458 12 17.0208 9.78125 18.7083 6.46875C18.7708 6.34375 18.802 6.1875 18.802 6.03125C18.802 5.84375 18.7708 5.6875 18.7083 5.5625ZM9.83325 10.5C6.7395 10.5 3.89575 8.78125 2.39575 6C3.89575 3.21875 6.7395 1.5 9.83325 1.5C12.8958 1.5 15.7395 3.21875 17.2395 6C15.7395 8.78125 12.8958 10.5 9.83325 10.5Z" fill="#3B3A35"/>
</svg>
