<svg width="21" height="17" viewBox="0 0 21 17" fill="none" xmlns="http://www.w3.org/2000/svg">
<path d="M14.9375 12.2188C15.125 12.4062 15.375 12.5 15.6562 12.5H17C17.25 12.5 17.5 12.2812 17.5 12V10.6875C17.4688 10.4062 17.375 10.1562 17.1875 9.96875L9.96875 2.75L7.71875 5L14.9375 12.2188ZM7 4.28125L9.25 2.03125L7.9375 0.71875C7.8125 0.59375 7.625 0.53125 7.40625 0.53125C7.21875 0.53125 7.03125 0.59375 6.875 0.71875L5.71875 1.90625C5.5625 2.0625 5.5 2.25 5.5 2.4375C5.5 2.65625 5.5625 2.84375 5.71875 2.96875L7 4.28125ZM19.5 5.5H14.1562L17.9062 9.28125C18.25 9.625 18.5 10.125 18.5 10.6875V13C18.5 13.2812 18.25 13.5 18 13.5H3.75C3.59375 13.5 3.5 13.4062 3.5 13.25V12.75C3.5 12.625 3.59375 12.5 3.75 12.5H13.8438L11.8438 10.5H3.75C3.59375 10.5 3.5 10.4062 3.5 10.25V9.75C3.5 9.625 3.59375 9.5 3.75 9.5H10.8438L6.84375 5.5H1.5C0.9375 5.5 0.5 5.96875 0.5 6.5V15.5C0.5 16.0625 0.9375 16.5 1.5 16.5H19.5C20.0312 16.5 20.5 16.0625 20.5 15.5V6.5C20.5 5.96875 20.0312 5.5 19.5 5.5Z" fill="#6F716E"/>
</svg>
