<svg width="19" height="19" viewBox="0 0 19 19" fill="none" xmlns="http://www.w3.org/2000/svg">
<path fill-rule="evenodd" clip-rule="evenodd" d="M5.41399 0.750122H13.5777C16.5527 0.750122 18.2502 2.43012 18.2502 5.41387V13.5864C18.2502 16.5526 16.5615 18.2501 13.5865 18.2501H5.41399C2.43024 18.2501 0.750244 16.5526 0.750244 13.5864V5.41387C0.750244 2.43012 2.43024 0.750122 5.41399 0.750122ZM10.2177 10.2264H12.7027C13.1052 10.2176 13.429 9.89387 13.429 9.49137C13.429 9.08887 13.1052 8.76512 12.7027 8.76512H10.2177V6.29763C10.2177 5.89512 9.89399 5.57137 9.49149 5.57137C9.08899 5.57137 8.76524 5.89512 8.76524 6.29763V8.76512H6.28899C6.09649 8.76512 5.91274 8.84387 5.77274 8.97512C5.64149 9.11512 5.56274 9.298 5.56274 9.49137C5.56274 9.89387 5.88649 10.2176 6.28899 10.2264H8.76524V12.7026C8.76524 13.1051 9.08899 13.4289 9.49149 13.4289C9.89399 13.4289 10.2177 13.1051 10.2177 12.7026V10.2264Z" fill="#6F716E"/>
</svg>
