<svg width="23" height="20" viewBox="0 0 23 20" fill="none" xmlns="http://www.w3.org/2000/svg">
<path d="M21.7734 2.5H5.875L5.52344 0.78125C5.44531 0.351562 5.05469 0 4.625 0H0.71875C0.445312 0 0.25 0.234375 0.25 0.46875V1.40625C0.25 1.67969 0.445312 1.875 0.71875 1.875H3.84375L6.53906 15.7812C6.10938 16.25 5.875 16.8359 5.875 17.5C5.875 18.9062 6.96875 20 8.375 20C9.74219 20 10.875 18.9062 10.875 17.5C10.875 17.0703 10.7188 16.6406 10.5234 16.25H16.1875C15.9922 16.6406 15.875 17.0703 15.875 17.5C15.875 18.9062 16.9688 20 18.375 20C19.7422 20 20.875 18.9062 20.875 17.5C20.875 16.7969 20.5625 16.1719 20.0938 15.7031L20.1328 15.5469C20.25 14.9609 19.8203 14.375 19.1953 14.375H8.17969L7.82812 12.5H20.0156C20.4844 12.5 20.8359 12.2266 20.9531 11.7969L22.7109 3.67188C22.8281 3.08594 22.3984 2.5 21.7734 2.5ZM8.375 18.4375C7.82812 18.4375 7.4375 18.0469 7.4375 17.5C7.4375 16.9922 7.82812 16.5625 8.375 16.5625C8.88281 16.5625 9.3125 16.9922 9.3125 17.5C9.3125 18.0469 8.88281 18.4375 8.375 18.4375ZM18.375 18.4375C17.8281 18.4375 17.4375 18.0469 17.4375 17.5C17.4375 16.9922 17.8281 16.5625 18.375 16.5625C18.8828 16.5625 19.3125 16.9922 19.3125 17.5C19.3125 18.0469 18.8828 18.4375 18.375 18.4375ZM19.2734 10.625H7.4375L6.22656 4.375H20.6406L19.2734 10.625Z" fill="#3B3A35"/>
</svg>
