<svg width="21" height="21" viewBox="0 0 21 21" fill="none" xmlns="http://www.w3.org/2000/svg">
<path d="M15.9166 13.5417C14.3151 13.5417 14.0416 13.5026 13.0651 13.8151C12.401 14.0495 11.6588 14.1667 10.9166 14.1667C10.1354 14.1667 9.39319 14.0495 8.72913 13.8151C7.75256 13.5026 7.47913 13.5417 5.91663 13.5417C3.14319 13.5417 0.916626 15.8073 0.916626 18.5417V19.1667C0.916626 19.8698 1.4635 20.4167 2.16663 20.4167H19.6666C20.3307 20.4167 20.9166 19.8698 20.9166 19.1667V18.5417C20.9166 15.8073 18.651 13.5417 15.9166 13.5417ZM19.0416 18.5417H2.79163C2.79163 17.7214 3.10413 16.9401 3.69006 16.3542C4.276 15.7682 5.05725 15.4167 5.91663 15.4167C7.51819 15.4167 7.51819 15.3776 8.10413 15.612C9.00256 15.8854 9.94006 16.0417 10.9166 16.0417C11.8541 16.0417 12.7916 15.8854 13.6901 15.612C14.3151 15.3776 14.276 15.4167 15.9166 15.4167C17.6354 15.4167 19.0416 16.8229 19.0416 18.5417ZM10.9166 12.9167C14.3541 12.9167 17.1666 10.1432 17.1666 6.66667C17.1666 3.22917 14.3541 0.416672 10.9166 0.416672C7.44006 0.416672 4.66663 3.22917 4.66663 6.66667C4.66663 10.1432 7.44006 12.9167 10.9166 12.9167ZM10.9166 2.29167C13.2994 2.29167 15.2916 4.28386 15.2916 6.66667C15.2916 9.08855 13.2994 11.0417 10.9166 11.0417C8.49475 11.0417 6.54163 9.08855 6.54163 6.66667C6.54163 4.28386 8.49475 2.29167 10.9166 2.29167Z" fill="#3B3A35"/>
</svg>
